<?xml version="1.0" encoding="UTF-8" standalone="no"?>
<!DOCTYPE svg PUBLIC "-//W3C//DTD SVG 1.1//EN" "http://www.w3.org/Graphics/SVG/1.1/DTD/svg11.dtd">
<svg width="100%" height="100%" viewBox="0 0 800 800" version="1.1" xmlns="http://www.w3.org/2000/svg" xmlns:xlink="http://www.w3.org/1999/xlink" xml:space="preserve" xmlns:serif="http://www.serif.com/" style="fill-rule:evenodd;clip-rule:evenodd;stroke-linejoin:round;stroke-miterlimit:2;">
    <path id="calender-body" d="M552.905,61.44C603.105,67.109 642.17,109.761 642.17,161.466L642.17,602.3C642.17,657.858 597.064,702.965 541.505,702.965L112.257,702.965C56.699,702.965 11.592,657.858 11.592,602.3L11.592,161.466C11.592,110.929 48.914,69.039 97.475,61.881L97.475,134.648C97.475,165.157 122.244,189.926 152.752,189.926C183.261,189.926 208.03,165.157 208.03,134.648L208.03,60.801L270.803,60.801L270.803,134.648C270.803,165.157 295.572,189.926 326.08,189.926C356.589,189.926 381.358,165.157 381.358,134.648L381.358,60.801L442.35,60.801L442.35,134.648C442.35,165.157 467.119,189.926 497.627,189.926C528.136,189.926 552.905,165.157 552.905,134.648L552.905,61.44ZM597.405,271.869L60.412,271.869L60.412,559.779C60.412,612.74 103.41,655.738 156.371,655.738L501.446,655.738C554.407,655.738 597.405,612.74 597.405,559.779L597.405,271.869Z" style="fill:white;"/>
    <g id="clamps">
        <g transform="matrix(1,0,0,1.01017,0,-1.68317)">
            <path d="M195.936,65.378C195.936,41.784 176.586,22.629 152.752,22.629C128.919,22.629 109.569,41.784 109.569,65.378L109.569,122.817C109.569,146.411 128.919,165.566 152.752,165.566C176.586,165.566 195.936,146.411 195.936,122.817L195.936,65.378Z" style="fill:white;"/>
        </g>
        <g transform="matrix(1,0,0,1.04126,173.328,-6.54301)">
            <path d="M195.936,64.101C195.936,41.212 176.586,22.629 152.752,22.629C128.919,22.629 109.569,41.212 109.569,64.101L109.569,124.094C109.569,146.983 128.919,165.566 152.752,165.566C176.586,165.566 195.936,146.983 195.936,124.094L195.936,64.101Z" style="fill:white;"/>
        </g>
        <g transform="matrix(1,0,0,1.04126,344.875,-6.54301)">
            <path d="M195.936,64.101C195.936,41.212 176.586,22.629 152.752,22.629C128.919,22.629 109.569,41.212 109.569,64.101L109.569,124.094C109.569,146.983 128.919,165.566 152.752,165.566C176.586,165.566 195.936,146.983 195.936,124.094L195.936,64.101Z" style="fill:white;"/>
        </g>
    </g>
    <g id="rectangles">
        <g transform="matrix(1,0,0,1,1,-4.75781)">
            <path d="M233.467,346.673C233.467,332.282 221.783,320.598 207.392,320.598L161.081,320.598C146.69,320.598 135.006,332.282 135.006,346.673L135.006,367.155C135.006,381.547 146.69,393.23 161.081,393.23L207.392,393.23C221.783,393.23 233.467,381.547 233.467,367.155L233.467,346.673Z" style="fill:white;"/>
        </g>
        <g transform="matrix(1,0,0,1,147.711,-4.75781)">
            <path d="M233.467,346.673C233.467,332.282 221.783,320.598 207.392,320.598L161.081,320.598C146.69,320.598 135.006,332.282 135.006,346.673L135.006,367.155C135.006,381.547 146.69,393.23 161.081,393.23L207.392,393.23C221.783,393.23 233.467,381.547 233.467,367.155L233.467,346.673Z" style="fill:white;"/>
        </g>
        <g transform="matrix(1,0,0,1,294.25,-4.75781)">
            <path d="M233.467,346.673C233.467,332.282 221.783,320.598 207.392,320.598L161.081,320.598C146.69,320.598 135.006,332.282 135.006,346.673L135.006,367.155C135.006,381.547 146.69,393.23 161.081,393.23L207.392,393.23C221.783,393.23 233.467,381.547 233.467,367.155L233.467,346.673Z" style="fill:white;"/>
        </g>
        <g transform="matrix(1,0,0,1,1,108.777)">
            <path d="M233.467,346.673C233.467,332.282 221.783,320.598 207.392,320.598L161.081,320.598C146.69,320.598 135.006,332.282 135.006,346.673L135.006,367.155C135.006,381.547 146.69,393.23 161.081,393.23L207.392,393.23C221.783,393.23 233.467,381.547 233.467,367.155L233.467,346.673Z" style="fill:white;"/>
        </g>
        <g transform="matrix(1,0,0,1,147.711,108.777)">
            <path d="M233.467,346.673C233.467,332.282 221.783,320.598 207.392,320.598L161.081,320.598C146.69,320.598 135.006,332.282 135.006,346.673L135.006,367.155C135.006,381.547 146.69,393.23 161.081,393.23L207.392,393.23C221.783,393.23 233.467,381.547 233.467,367.155L233.467,346.673Z" style="fill:white;"/>
        </g>
        <g transform="matrix(1,0,0,1,0.464844,219.936)">
            <path d="M233.467,346.673C233.467,332.282 221.783,320.598 207.392,320.598L161.081,320.598C146.69,320.598 135.006,332.282 135.006,346.673L135.006,367.155C135.006,381.547 146.69,393.23 161.081,393.23L207.392,393.23C221.783,393.23 233.467,381.547 233.467,367.155L233.467,346.673Z" style="fill:white;"/>
        </g>
        <g transform="matrix(1,0,0,1,147.176,219.936)">
            <path d="M233.467,346.673C233.467,332.282 221.783,320.598 207.392,320.598L161.081,320.598C146.69,320.598 135.006,332.282 135.006,346.673L135.006,367.155C135.006,381.547 146.69,393.23 161.081,393.23L207.392,393.23C221.783,393.23 233.467,381.547 233.467,367.155L233.467,346.673Z" style="fill:white;"/>
        </g>
    </g>
</svg>
