<?xml version="1.0" encoding="UTF-8" standalone="no"?>
<!DOCTYPE svg PUBLIC "-//W3C//DTD SVG 1.1//EN" "http://www.w3.org/Graphics/SVG/1.1/DTD/svg11.dtd">
<svg width="100%" height="100%" viewBox="0 0 27 26" version="1.1" xmlns="http://www.w3.org/2000/svg" xmlns:xlink="http://www.w3.org/1999/xlink" xml:space="preserve" xmlns:serif="http://www.serif.com/" style="fill-rule:evenodd;clip-rule:evenodd;stroke-linejoin:round;stroke-miterlimit:2;">
    <g transform="matrix(1.09872,0,0,1.15079,0,0)">
        <rect id="Artboard1" x="0" y="0" width="24" height="22" style="fill:none;"/>
        <g id="Artboard11" serif:id="Artboard1">
            <g transform="matrix(0.0576714,0,0,0.0560386,4.79107,4.9614)">
                <path d="M153.903,-4.849C153.903,-4.849 176.77,59.941 176.77,59.941L332.24,59.941L210.061,155.939L252.899,301.591C252.899,301.591 125,216.324 125,216.324L-2.899,301.591C-2.899,301.591 39.939,155.939 39.939,155.939L-82.24,59.941L73.23,59.941L125,-86.74L153.903,-4.849ZM125,5L95,90L5,90L75,145L50,230L125,180L200,230L175,145L245,90L155,90L125,5Z" style="fill:rgb(80,46,184);"/>
            </g>
        </g>
    </g>
</svg>
