<?xml version="1.0" encoding="UTF-8" standalone="no"?>
<!DOCTYPE svg PUBLIC "-//W3C//DTD SVG 1.1//EN" "http://www.w3.org/Graphics/SVG/1.1/DTD/svg11.dtd">
<svg width="100%" height="100%" viewBox="0 0 591 591" version="1.1" xmlns="http://www.w3.org/2000/svg" xmlns:xlink="http://www.w3.org/1999/xlink" xml:space="preserve" xmlns:serif="http://www.serif.com/" style="fill-rule:evenodd;clip-rule:evenodd;stroke-linecap:round;stroke-linejoin:round;stroke-miterlimit:1.5;">
    <g transform="matrix(1.0153,0,0,1.02484,-9.12098,-2.37096)">
        <g transform="matrix(1.10012,0,0,1.10012,-25.0299,-32.6099)">
            <path d="M69.16,213.315C57.202,206.069 53.175,190.68 60.169,178.567L77.731,148.147C81.205,142.131 86.96,137.738 93.718,135.944C100.476,134.15 107.677,135.104 113.721,138.594L114.28,138.917C116.768,140.353 119.932,139.856 121.849,137.728L121.861,137.715C127.112,131.917 132.662,126.395 138.476,121.159C138.484,121.151 138.493,121.143 138.502,121.135C141.153,118.769 141.781,114.892 140.009,111.823C139.9,111.635 139.801,111.443 139.71,111.247C132.931,98.884 137.271,83.361 149.603,76.241L179.426,59.022C185.507,55.511 192.752,54.551 199.551,56.356C206.35,58.161 212.14,62.581 215.635,68.634L216.148,69.523C217.579,72.002 220.575,73.138 223.311,72.241L223.329,72.235C230.603,69.87 238.037,67.868 245.607,66.233C245.617,66.231 245.628,66.228 245.639,66.226C249.175,65.478 251.702,62.384 251.702,58.802C251.702,58.567 251.713,58.334 251.734,58.104C251.914,51.394 254.683,44.996 259.487,40.237C264.456,35.314 271.197,32.548 278.225,32.548L312.326,32.548C319.354,32.548 326.095,35.314 331.064,40.237C336.034,45.161 338.826,51.839 338.826,58.801L338.826,60.101C338.826,62.946 340.842,65.4 343.653,65.978L343.669,65.981C351.34,67.575 358.871,69.562 366.247,71.905C366.259,71.909 366.27,71.912 366.282,71.916C369.577,72.98 373.175,71.606 374.896,68.625C375.01,68.426 375.133,68.235 375.263,68.05C378.787,62.297 384.421,58.102 391,56.356C397.799,54.551 405.044,55.511 411.125,59.022L440.896,76.211C453.427,83.445 457.725,99.337 450.524,111.81L449.907,112.879C448.486,115.341 448.998,118.452 451.136,120.339L451.151,120.352C457.147,125.674 462.856,131.31 468.266,137.224C468.274,137.233 468.282,137.241 468.29,137.25C470.456,139.64 474.018,140.194 476.819,138.577C477.01,138.467 477.203,138.366 477.399,138.275C483.324,135.047 490.287,134.206 496.833,135.944C503.591,137.738 509.346,142.131 512.82,148.147L530.352,178.513C537.456,190.818 533.216,206.495 520.854,213.632L520.316,213.943C517.832,215.377 516.707,218.344 517.625,221.043C517.627,221.05 517.63,221.057 517.632,221.064C520.282,228.936 522.507,237 524.301,245.226C524.303,245.237 524.305,245.248 524.308,245.259C524.914,248.106 527.45,250.142 530.387,250.142C530.599,250.142 530.809,250.151 531.016,250.168C545.114,250.499 556.439,261.924 556.439,275.969L556.439,311.583C556.439,325.688 544.897,337.123 530.659,337.123L529.465,337.123C527.415,337.123 525.655,338.568 525.273,340.563C525.271,340.571 525.27,340.578 525.268,340.586C523.509,349.622 521.215,358.47 518.435,367.097C518.432,367.109 518.428,367.122 518.424,367.134C517.603,369.634 518.654,372.362 520.947,373.686C521.105,373.778 521.26,373.875 521.411,373.978C533.388,381.14 537.441,396.492 530.471,408.565L512.62,439.483C509.199,445.408 503.532,449.734 496.877,451.501C490.222,453.267 483.13,452.328 477.178,448.891L476.93,448.748C475.153,447.722 472.889,448.099 471.547,449.644C471.542,449.65 471.536,449.657 471.53,449.663C465.366,456.71 458.777,463.375 451.814,469.628C451.805,469.636 451.796,469.644 451.786,469.653C450.011,471.231 449.589,473.823 450.773,475.874C450.861,476.027 450.944,476.182 451.02,476.34C457.775,488.475 453.538,503.775 441.409,510.778L410.872,528.408C404.858,531.88 397.693,532.83 390.968,531.045C384.244,529.26 378.518,524.889 375.062,518.902L374.527,517.977C373.933,516.947 372.681,516.486 371.552,516.881C371.543,516.885 371.533,516.888 371.523,516.892C362.026,520.171 352.249,522.848 342.24,524.886C342.228,524.889 342.216,524.891 342.204,524.893C340.248,525.282 338.841,526.984 338.841,528.96C338.841,529.145 338.834,529.328 338.82,529.509C338.526,543.491 326.994,554.736 312.81,554.736L277.743,554.736C263.374,554.736 251.725,543.196 251.725,528.96L251.725,527.566C251.725,526.392 250.885,525.382 249.721,525.158C249.712,525.156 249.703,525.154 249.694,525.152C239.561,523.162 229.664,520.509 220.046,517.248C220.033,517.244 220.021,517.24 220.008,517.236C218.296,516.645 216.402,517.348 215.502,518.907C215.413,519.061 215.32,519.21 215.221,519.356C211.741,525.109 206.136,529.305 199.583,531.045C192.859,532.83 185.693,531.88 179.679,528.408L149.245,510.837C136.941,503.733 132.721,488.129 139.791,475.882L140.114,475.323C141.115,473.59 140.755,471.4 139.251,470.07C139.245,470.064 139.238,470.058 139.231,470.052C132.15,463.746 125.464,457.008 119.204,449.891C119.196,449.882 119.188,449.872 119.179,449.863C117.733,448.202 115.296,447.798 113.382,448.903C113.216,448.999 113.048,449.088 112.878,449.17C107.03,452.377 100.146,453.219 93.674,451.501C87.019,449.734 81.352,445.408 77.931,439.483L60.15,408.685C53.074,396.428 57.297,380.811 69.612,373.702L70.575,373.146C72.316,372.14 73.11,370.064 72.478,368.168C72.475,368.159 72.472,368.15 72.469,368.142C69.643,359.552 67.313,350.741 65.499,341.744C65.497,341.733 65.495,341.722 65.493,341.71C64.971,339.056 62.624,337.141 59.894,337.141C59.685,337.141 59.477,337.132 59.272,337.115C52.659,336.958 46.352,334.287 41.663,329.642C36.828,324.852 34.112,318.355 34.112,311.581L34.112,275.969C34.112,261.716 45.775,250.161 60.163,250.161L61.751,250.161C63.778,250.161 65.526,248.747 65.932,246.779C65.933,246.772 65.935,246.764 65.936,246.757C67.727,238.205 69.997,229.827 72.706,221.648C72.71,221.636 72.714,221.624 72.718,221.613C73.739,218.583 72.474,215.259 69.688,213.65C69.507,213.546 69.331,213.434 69.16,213.315ZM253.709,53.758C254.268,53.165 254.924,52.663 255.653,52.278C254.736,52.744 254.14,53.274 253.709,53.758ZM256.619,51.852C257.382,51.578 258.204,51.423 259.062,51.412C257.245,51.436 256.759,51.757 256.619,51.852ZM139.621,111.05C138.944,109.475 138.836,107.705 139.334,106.046C138.692,108.183 138.966,109.682 139.621,111.05ZM68.95,213.163C67.659,212.198 66.712,210.837 66.267,209.28C66.825,211.23 67.764,212.34 68.95,213.163ZM331.365,60.101L331.365,58.801C331.365,53.799 329.359,49.001 325.789,45.464C322.218,41.927 317.376,39.939 312.326,39.939L278.225,39.939C273.176,39.939 268.333,41.927 264.762,45.464C261.192,49.001 259.186,53.799 259.186,58.801C259.186,58.802 259.186,58.802 259.162,58.802C259.162,65.871 254.175,71.979 247.196,73.454C239.877,75.036 232.689,76.971 225.656,79.258C219.55,81.26 212.866,78.724 209.672,73.193L209.158,72.303C206.651,67.961 202.498,64.79 197.62,63.496C192.743,62.201 187.545,62.889 183.183,65.408L153.359,82.627C144.397,87.801 141.323,99.167 146.473,108.088C146.484,108.106 146.494,108.124 146.485,108.154C150,114.242 148.755,121.934 143.495,126.627C137.868,131.695 132.497,137.04 127.415,142.651C123.136,147.399 116.075,148.507 110.524,145.303L109.965,144.98C105.639,142.482 100.485,141.8 95.649,143.083C90.812,144.367 86.694,147.511 84.208,151.817L66.645,182.237C61.592,190.988 64.608,202.139 73.4,207.215C73.419,207.226 73.437,207.236 73.445,207.264C79.284,210.635 81.935,217.602 79.795,223.953C77.173,231.869 74.975,239.979 73.242,248.258C72.127,253.667 67.323,257.552 61.751,257.552L60.163,257.552C49.896,257.552 41.573,265.798 41.573,275.969L41.573,311.581C41.573,316.395 43.503,321.012 46.939,324.416C50.375,327.82 55.035,329.732 59.894,329.732C59.894,329.732 59.894,329.732 59.894,329.75C66.194,329.75 71.611,334.171 72.816,340.296C74.572,349.006 76.827,357.536 79.563,365.851C81.299,371.063 79.118,376.768 74.331,379.531L73.368,380.088C64.593,385.154 61.584,396.282 66.626,405.015L84.407,435.813C86.841,440.028 90.872,443.105 95.605,444.361C100.339,445.618 105.383,444.95 109.617,442.505C109.617,442.505 109.618,442.504 109.626,442.517C114.644,439.62 121.035,440.678 124.829,445.035C130.89,451.926 137.364,458.45 144.219,464.556C148.351,468.21 149.34,474.229 146.591,478.993L146.268,479.552C141.231,488.276 144.237,499.391 153.002,504.451L183.435,522.022C187.731,524.502 192.849,525.18 197.652,523.905C202.455,522.63 206.545,519.508 209.013,515.232C209.014,515.232 209.014,515.231 209.026,515.237C211.71,510.589 217.356,508.495 222.461,510.255C231.767,513.409 241.342,515.977 251.145,517.902C255.814,518.801 259.186,522.853 259.186,527.566L259.186,528.96C259.186,539.114 267.494,547.345 277.743,547.345L312.81,547.345C323.058,547.345 331.365,539.115 331.365,528.962C331.365,528.961 331.365,528.961 331.38,528.96C331.38,523.462 335.296,518.727 340.737,517.646C350.421,515.674 359.879,513.085 369.067,509.912C373.595,508.328 378.619,510.177 381.003,514.307L381.538,515.232C384.007,519.508 388.097,522.63 392.899,523.905C397.702,525.18 402.82,524.502 407.116,522.022L437.652,504.392C446.36,499.364 449.347,488.321 444.343,479.654C444.323,479.62 444.303,479.586 444.297,479.544C441.367,474.469 442.411,468.056 446.803,464.151C453.545,458.098 459.924,451.645 465.892,444.822C469.58,440.576 475.801,439.542 480.687,442.362L480.934,442.505C485.168,444.95 490.212,445.618 494.946,444.361C499.68,443.105 503.711,440.028 506.144,435.813L523.995,404.895C528.998,396.228 526.012,385.185 517.304,380.158C517.263,380.134 517.222,380.11 517.19,380.072C511.864,376.997 509.423,370.658 511.328,364.849C514.019,356.498 516.239,347.933 517.943,339.186C518.993,333.701 523.831,329.732 529.465,329.732L530.659,329.732C540.776,329.732 548.978,321.606 548.978,311.583L548.978,275.969C548.978,265.798 540.655,257.552 530.389,257.552C530.388,257.552 530.387,257.552 530.387,257.534C523.924,257.534 518.343,253.051 517.008,246.786C515.272,238.826 513.119,231.021 510.554,223.402C508.507,217.378 511.015,210.758 516.559,207.557L517.097,207.246C525.919,202.153 528.945,190.964 523.876,182.183L506.344,151.817C503.858,147.511 499.739,144.367 494.903,143.083C490.066,141.8 484.912,142.482 480.586,144.98C480.586,144.98 480.586,144.98 480.576,144.963C474.718,148.345 467.268,147.186 462.738,142.188C457.502,136.463 451.976,131.008 446.172,125.858C441.403,121.647 440.259,114.703 443.431,109.209L444.048,108.14C449.215,99.191 446.131,87.788 437.14,82.597L407.368,65.408C403.006,62.889 397.808,62.201 392.931,63.496C388.053,64.79 383.9,67.961 381.393,72.303C381.392,72.304 381.392,72.305 381.372,72.295C377.895,78.317 370.627,81.094 363.969,78.943C356.837,76.678 349.555,74.756 342.137,73.215C335.864,71.925 331.365,66.449 331.365,60.101ZM334.661,535.6C333.755,536.04 332.745,536.304 331.674,536.346C333.768,536.264 334.422,535.761 334.661,535.6ZM531.203,250.186C532.863,250.365 534.362,251.084 535.514,252.164C534.051,250.714 532.658,250.285 531.203,250.186ZM536.086,252.763C537.131,253.988 537.783,255.556 537.843,257.279C537.716,253.619 536.38,252.963 536.086,252.763ZM477.749,138.122C478.938,137.638 480.201,137.48 481.421,137.619C479.96,137.416 478.807,137.652 477.749,138.122ZM482.45,137.809C484.283,138.28 485.937,139.439 486.983,141.176C484.514,137.076 482.713,137.732 482.45,137.809ZM375.612,67.595C376.25,66.827 377.025,66.21 377.88,65.762C376.893,66.253 376.182,66.872 375.612,67.595ZM381.46,64.903C382.582,64.915 383.717,65.179 384.78,65.72C382.728,64.676 381.798,64.854 381.46,64.903ZM59.213,337.11C57.274,336.936 55.549,336.028 54.324,334.667C55.981,336.626 57.564,337.039 59.213,337.11ZM53.882,334.127C52.982,332.916 52.446,331.422 52.434,329.804C52.463,333.666 53.703,334.059 53.882,334.127ZM112.681,449.261C111.27,449.89 109.74,450.05 108.292,449.789C110.106,450.16 111.447,449.859 112.681,449.261ZM105.413,448.619C104.601,448.07 103.888,447.352 103.329,446.48C104.421,448.184 105.16,448.495 105.413,448.619ZM214.564,520.191C214.317,520.463 214.053,520.713 213.773,520.941C214.065,520.706 214.326,520.456 214.564,520.191ZM210.03,522.561C208.604,522.754 207.109,522.541 205.728,521.867C208.432,523.187 209.621,522.676 210.03,522.561ZM338.797,529.768C338.635,531.238 338.038,532.582 337.133,533.667C338.288,532.344 338.693,531.083 338.797,529.768Z" style="fill:rgb(80,46,184);"/>
        </g>
        <g transform="matrix(1.01704,0,0,1.00757,28.6418,55.268)">
            <circle cx="267.251" cy="236.385" r="175.927" style="fill:none;stroke:rgb(80,46,184);stroke-width:8.07px;"/>
        </g>
    </g>
    <g id="Layer1">
    </g>
</svg>
