<?xml version="1.0" encoding="UTF-8" standalone="no"?>
<!DOCTYPE svg PUBLIC "-//W3C//DTD SVG 1.1//EN" "http://www.w3.org/Graphics/SVG/1.1/DTD/svg11.dtd">
<svg width="100%" height="100%" viewBox="0 0 142 142" version="1.1" xmlns="http://www.w3.org/2000/svg" xmlns:xlink="http://www.w3.org/1999/xlink" xml:space="preserve" xmlns:serif="http://www.serif.com/" style="fill-rule:evenodd;clip-rule:evenodd;stroke-linejoin:round;stroke-miterlimit:2;">
    <g transform="matrix(0.24,0,0,0.24,0,0)">
        <g transform="matrix(1.11695,0,0,1.12745,-34.5339,-35.7909)">
            <path d="M331.365,60.101C331.365,66.449 335.864,71.925 342.137,73.215C349.555,74.756 356.837,76.678 363.969,78.943C370.627,81.094 377.895,78.317 381.372,72.295C381.392,72.305 381.392,72.304 381.393,72.303C383.9,67.961 388.053,64.79 392.931,63.496C397.808,62.201 403.006,62.889 407.368,65.408C416.568,70.72 427.982,77.309 437.14,82.597C446.131,87.788 449.215,99.191 444.048,108.14C443.841,108.5 443.635,108.856 443.431,109.209C440.259,114.703 441.403,121.647 446.172,125.858C451.976,131.008 457.502,136.463 462.738,142.188C467.268,147.186 474.718,148.345 480.576,144.963C480.586,144.98 480.586,144.98 480.586,144.98C484.912,142.482 490.066,141.8 494.903,143.083C499.739,144.367 503.858,147.511 506.344,151.817C511.75,161.18 518.511,172.891 523.876,182.183C528.945,190.964 525.919,202.153 517.097,207.246C516.917,207.35 516.737,207.454 516.559,207.557C511.015,210.758 508.507,217.378 510.554,223.402C513.119,231.021 515.272,238.826 517.008,246.786C518.343,253.051 523.924,257.534 530.387,257.534C530.387,257.552 530.388,257.552 530.389,257.552C540.655,257.552 548.978,265.798 548.978,275.969C548.978,286.899 548.978,300.7 548.978,311.583C548.978,321.606 540.776,329.732 530.659,329.732L529.465,329.732C523.831,329.732 518.993,333.701 517.943,339.186C516.239,347.933 514.019,356.498 511.328,364.849C509.423,370.658 511.864,376.997 517.19,380.072C517.222,380.11 517.263,380.134 517.304,380.158C526.012,385.185 528.998,396.228 523.995,404.895C518.545,414.334 511.622,426.325 506.144,435.813C503.711,440.028 499.68,443.105 494.946,444.361C490.212,445.618 485.168,444.95 480.934,442.505C480.851,442.457 480.769,442.41 480.687,442.362C475.801,439.542 469.58,440.576 465.892,444.822C459.924,451.645 453.545,458.098 446.803,464.151C442.411,468.056 441.367,474.469 444.297,479.544C444.303,479.586 444.323,479.62 444.343,479.654C449.347,488.321 446.36,499.364 437.652,504.392C428.327,509.776 416.53,516.587 407.116,522.022C402.82,524.502 397.702,525.18 392.899,523.905C388.097,522.63 384.007,519.508 381.538,515.232C381.357,514.919 381.179,514.611 381.003,514.307C378.619,510.177 373.595,508.328 369.067,509.912C359.879,513.085 350.421,515.674 340.737,517.646C335.296,518.727 331.38,523.462 331.38,528.96C331.365,528.961 331.365,528.961 331.365,528.962C331.365,539.115 323.058,547.345 312.81,547.345C302.038,547.345 288.515,547.345 277.743,547.345C267.494,547.345 259.186,539.114 259.186,528.96C259.186,528.487 259.186,528.022 259.186,527.566C259.186,522.853 255.814,518.801 251.145,517.902C241.342,515.977 231.767,513.409 222.461,510.255C217.356,508.495 211.71,510.589 209.026,515.237C209.014,515.231 209.014,515.232 209.013,515.232C206.545,519.508 202.455,522.63 197.652,523.905C192.849,525.18 187.731,524.502 183.435,522.022C174.056,516.607 162.311,509.826 153.002,504.451C144.237,499.391 141.231,488.276 146.268,479.552C146.376,479.364 146.484,479.178 146.591,478.993C149.34,474.229 148.351,468.21 144.219,464.556C137.364,458.45 130.89,451.926 124.829,445.035C121.035,440.678 114.644,439.62 109.626,442.517C109.618,442.504 109.617,442.505 109.617,442.505C105.383,444.95 100.339,445.618 95.605,444.361C90.872,443.105 86.841,440.028 84.407,435.813C78.953,426.365 72.065,414.436 66.626,405.015C61.584,396.282 64.593,385.154 73.368,380.088C73.693,379.9 74.014,379.715 74.331,379.531C79.118,376.768 81.299,371.063 79.563,365.851C76.827,357.536 74.572,349.006 72.816,340.296C71.611,334.171 66.194,329.75 59.894,329.75C59.894,329.732 59.894,329.732 59.894,329.732C55.035,329.732 50.375,327.82 46.939,324.416C43.503,321.012 41.573,316.395 41.573,311.581C41.573,300.699 41.573,286.898 41.573,275.969C41.573,265.798 49.896,257.552 60.163,257.552C60.7,257.552 61.23,257.552 61.751,257.552C67.323,257.552 72.127,253.667 73.242,248.258C74.975,239.979 77.173,231.869 79.795,223.953C81.935,217.602 79.284,210.635 73.445,207.264C73.437,207.236 73.419,207.226 73.4,207.215C64.608,202.139 61.592,190.988 66.645,182.237C72.014,172.936 78.791,161.198 84.208,151.817C86.694,147.511 90.812,144.367 95.649,143.083C100.485,141.8 105.639,142.482 109.965,144.98C110.152,145.088 110.338,145.196 110.524,145.303C116.075,148.507 123.136,147.399 127.415,142.651C132.497,137.04 137.868,131.695 143.495,126.627C148.755,121.934 150,114.242 146.485,108.154C146.494,108.124 146.484,108.106 146.473,108.088C141.323,99.167 144.397,87.801 153.359,82.627C162.526,77.334 173.966,70.73 183.183,65.408C187.545,62.889 192.743,62.201 197.62,63.496C202.498,64.79 206.651,67.961 209.158,72.303C209.331,72.602 209.502,72.899 209.672,73.193C212.866,78.724 219.55,81.26 225.656,79.258C232.689,76.971 239.877,75.036 247.196,73.454C254.175,71.979 259.162,65.871 259.162,58.802C259.186,58.802 259.186,58.802 259.186,58.801C259.186,53.799 261.192,49.001 264.762,45.464C268.333,41.927 273.176,39.939 278.225,39.939C288.754,39.939 301.797,39.939 312.326,39.939C317.376,39.939 322.218,41.927 325.789,45.464C329.359,49.001 331.365,53.799 331.365,58.801C331.365,59.239 331.365,59.672 331.365,60.101ZM295.276,130.148C386.412,130.148 460.403,204.139 460.403,295.276C460.403,386.412 386.412,460.403 295.276,460.403C204.139,460.403 130.148,386.412 130.148,295.276C130.148,204.139 204.139,130.148 295.276,130.148Z" style="fill:rgb(83,131,198);"/>
        </g>
    </g>
</svg>
