<?xml version="1.0" encoding="UTF-8" standalone="no"?>
<!DOCTYPE svg PUBLIC "-//W3C//DTD SVG 1.1//EN" "http://www.w3.org/Graphics/SVG/1.1/DTD/svg11.dtd">
<svg width="100%" height="100%" viewBox="0 0 60 60" version="1.1" xmlns="http://www.w3.org/2000/svg" xmlns:xlink="http://www.w3.org/1999/xlink" xml:space="preserve" xmlns:serif="http://www.serif.com/" style="fill-rule:evenodd;clip-rule:evenodd;stroke-linejoin:round;stroke-miterlimit:2;">
    <rect id="Artboard1" x="0" y="0" width="60" height="60" style="fill:none;"/>
    <g id="Artboard11" serif:id="Artboard1">
        <g id="Layer1">
            <g transform="matrix(0.999667,0,0,0.999667,0.01,0.01)">
                <path d="M22.55,0.934C24.932,0.324 27.429,0 30,0C35.493,0 40.644,1.48 45.074,4.062L43.647,6.045C43.647,6.045 43.966,6.682 42.039,7.957C40.113,9.233 39.431,11.529 37.391,11.735C35.351,11.942 34.213,10.572 34.148,13.239C34.082,15.906 33.274,17.983 33.274,17.983C33.274,17.983 32.743,19.267 34.209,21.061C35.676,22.856 37.549,23.545 39.109,22.782C40.668,22.019 40.995,20.83 40.995,20.83C40.995,20.83 42.626,17.456 44.173,18.043C45.721,18.629 47.88,20.559 49.697,20.559C51.515,20.559 49.989,22.913 51.802,23.644C53.614,24.375 56.333,26.122 56.333,26.122L59.573,24.934C59.854,26.581 60,28.274 60,30C60,46.557 46.557,60 30,60C16.011,60 4.245,50.404 0.932,37.442C1.453,37.847 2.03,38.248 2.668,38.628C7.045,41.24 6.809,41.273 9.267,39.868C11.725,38.462 11.825,42.546 13.347,42.62C14.869,42.693 17.827,41.285 18.345,40.241C18.863,39.197 20.265,40.984 21.779,40.179C23.293,39.373 23.923,41.212 24.65,41.504C25.378,41.797 24.65,43.141 25.653,43.683C26.656,44.224 29.995,44.265 31.608,44.265C33.222,44.265 35.965,46.622 35.965,46.622C35.965,46.622 37.561,48.761 38.583,48.876C39.604,48.99 40.513,50.549 41.71,50.929C42.907,51.309 44.665,50.571 44.64,49.767C44.615,48.963 42.316,48.747 42.316,48.747C42.316,48.747 40.937,47.645 40.713,47.141C40.488,46.637 40.933,44.909 41.256,43.171C41.579,41.433 39.805,40.976 39.674,39.434C39.543,37.892 40.717,36.357 39.811,35.047C38.906,33.736 39.869,32.476 38.114,31.662C36.358,30.849 34.183,33.787 32.883,33.87C31.582,33.953 31.171,33.207 30.388,33.097C29.605,32.987 29.918,33.818 28.707,33.902C27.495,33.987 27.893,33.259 26.675,33.559C25.456,33.859 26.14,34.835 25.791,35.459C25.442,36.084 23.481,35.823 23.481,35.823L22.632,37.829C22.632,37.829 22.467,39.031 20.664,38.756C18.86,38.481 20.428,37.967 19.16,37.849C17.893,37.73 17.684,38.315 17.19,37.857C16.696,37.399 16.387,40.47 14.439,39.904C12.491,39.339 13.852,37.853 13.797,35.995C13.742,34.137 17.253,32.253 17.253,32.253C17.253,32.253 16.45,29.752 16.45,27.008C16.45,24.265 16.971,23.603 16.971,21.293C16.971,18.983 15.657,18.968 14.517,20.122C13.378,21.277 14.55,22.72 14.55,22.72C14.55,22.72 12.952,25.195 12.734,24.317C12.516,23.44 10.964,24.563 10.065,24.243C9.166,23.923 10.438,22.059 10.107,20.9C9.777,19.741 7.228,23.57 7.228,23.57L2.506,25.701L0.188,26.624C1.019,19.219 4.55,12.625 9.773,7.852C10.194,8.325 10.762,8.687 11.53,8.802C14.518,9.25 16.988,11.263 17.362,9.725C17.735,8.188 19.582,9.735 21.238,6.944C22.894,4.153 22.907,2.475 22.907,2.475L22.55,0.934Z"/>
            </g>
            <g transform="matrix(1.36828,0,0,1.36828,-3.71848,-1.49093)">
                <path d="M24.643,1.097C36.74,1.097 46.561,10.918 46.561,23.015C46.561,35.112 36.74,44.933 24.643,44.933C12.546,44.933 2.725,35.112 2.725,23.015C2.725,10.918 12.546,1.097 24.643,1.097ZM24.643,3.289C13.756,3.289 4.917,12.128 4.917,23.015C4.917,33.902 13.756,42.741 24.643,42.741C35.53,42.741 44.369,33.902 44.369,23.015C44.369,12.128 35.53,3.289 24.643,3.289Z"/>
            </g>
        </g>
    </g>
</svg>
